<?xml version="1.0" standalone="no"?>
<!DOCTYPE svg PUBLIC "-//W3C//DTD SVG 20010904//EN"
 "http://www.w3.org/TR/2001/REC-SVG-20010904/DTD/svg10.dtd">
<svg version="1.0" xmlns="http://www.w3.org/2000/svg"
 width="2048.000000pt" height="2048.000000pt" viewBox="0 0 2048.000000 2048.000000"
 preserveAspectRatio="xMidYMid meet">
<metadata>
Created by potrace 1.14, written by Peter Selinger 2001-2017
</metadata>
<g transform="translate(0.000000,2048.000000) scale(0.100000,-0.100000)"
fill="#000000" stroke="none">
<path d="M9905 19444 c-215 -6 -710 -51 -920 -84 -33 -5 -109 -16 -170 -25
-60 -9 -130 -20 -155 -25 -25 -5 -85 -16 -135 -25 -169 -31 -486 -100 -547
-120 -7 -2 -76 -20 -153 -40 -184 -49 -409 -116 -515 -156 -47 -17 -134 -48
-195 -69 -288 -99 -605 -233 -960 -405 -1840 -891 -3355 -2389 -4276 -4227
-231 -460 -449 -1008 -588 -1478 -18 -58 -40 -134 -51 -170 -66 -220 -180
-733 -225 -1005 -8 -55 -20 -127 -25 -160 -34 -207 -65 -503 -85 -800 -18
-260 -20 -937 -4 -1154 56 -784 189 -1506 402 -2196 69 -221 84 -266 204 -590
29 -79 142 -351 180 -435 13 -30 38 -86 56 -125 39 -88 245 -498 293 -585 175
-313 220 -387 419 -688 184 -278 270 -395 490 -672 236 -295 394 -470 704
-781 478 -477 912 -831 1471 -1200 973 -641 2105 -1107 3260 -1343 344 -70
538 -100 950 -145 526 -58 1337 -58 1870 0 416 45 738 97 1102 178 1221 273
2370 785 3393 1512 278 197 659 503 880 707 129 119 430 418 557 554 486 522
923 1118 1280 1748 107 188 275 513 337 650 19 41 50 109 68 150 92 199 242
579 316 800 91 269 221 723 257 894 4 23 26 128 49 234 79 371 134 759 173
1217 18 205 18 1198 0 1390 -38 428 -87 772 -158 1125 -35 177 -39 193 -94
425 -103 427 -312 1048 -485 1440 -37 83 -76 173 -88 200 -78 187 -397 787
-532 1000 -116 186 -177 278 -288 440 -1188 1731 -2991 3039 -5020 3644 -111
33 -238 69 -282 80 -44 11 -143 36 -220 55 -160 39 -492 107 -640 131 -55 8
-127 20 -160 25 -33 5 -114 16 -180 25 -66 8 -147 20 -180 25 -33 5 -116 14
-185 20 -69 5 -174 14 -235 20 -113 10 -763 20 -960 14z m807 -1534 c427 -33
501 -41 653 -64 172 -27 423 -75 615 -118 74 -17 151 -34 170 -38 210 -44 781
-231 1030 -335 74 -31 180 -75 235 -98 117 -48 568 -275 705 -355 427 -248
713 -442 1051 -713 432 -346 836 -748 1194 -1189 115 -140 148 -184 277 -363
131 -181 236 -342 370 -567 138 -231 377 -695 451 -875 25 -60 72 -176 105
-256 115 -281 249 -697 318 -989 19 -80 38 -163 44 -185 34 -143 113 -583 131
-730 38 -321 59 -680 59 -1011 0 -280 -4 -363 -30 -699 -29 -364 -118 -875
-229 -1305 -62 -242 -216 -706 -305 -917 -30 -70 -73 -175 -97 -233 -56 -138
-263 -552 -343 -688 -35 -59 -78 -134 -96 -167 -57 -104 -281 -443 -410 -620
-341 -470 -734 -900 -1190 -1300 -69 -61 -147 -128 -175 -150 -27 -22 -52 -42
-55 -45 -11 -13 -227 -179 -300 -230 -43 -30 -104 -74 -136 -98 -61 -45 -87
-61 -294 -195 -289 -186 -809 -461 -1100 -582 -36 -15 -78 -33 -95 -40 -219
-94 -566 -215 -875 -305 -41 -12 -95 -28 -120 -35 -85 -24 -321 -78 -510 -115
-755 -148 -1457 -185 -2220 -119 -128 11 -418 46 -495 59 -27 5 -104 18 -170
30 -132 22 -131 22 -395 79 -430 94 -784 208 -1308 420 -353 144 -844 403
-1212 640 -213 138 -180 115 -352 240 -1049 764 -1892 1766 -2458 2923 -65
134 -144 306 -175 383 -32 77 -76 187 -100 245 -138 341 -303 909 -375 1295
-90 478 -121 720 -139 1095 -21 414 -4 1087 33 1330 3 19 10 73 16 120 51 387
165 932 255 1220 15 47 35 112 45 145 77 253 201 582 311 823 16 35 29 65 29
68 0 16 223 459 291 576 44 77 90 157 101 177 72 128 267 426 404 617 381 530
891 1069 1419 1498 638 519 1370 939 2160 1240 306 116 722 244 960 296 33 7
110 25 170 41 168 42 555 111 725 129 36 4 137 13 225 19 88 7 196 16 240 21
118 11 825 12 967 0z"/>
<path d="M14823 15145 c-241 -44 -460 -181 -612 -385 -64 -87 -66 -89 -131
-218 -91 -182 -129 -350 -137 -607 -3 -101 -1 -203 4 -232 6 -29 8 -54 6 -56
-2 -3 -44 13 -93 34 -223 96 -479 143 -866 158 -495 19 -1057 -30 -1709 -150
-344 -63 -809 -168 -1100 -249 -82 -23 -206 -57 -275 -76 -69 -19 -186 -54
-260 -78 -74 -25 -162 -52 -195 -61 -170 -48 -942 -328 -1096 -398 -30 -14
-82 -36 -115 -48 -205 -76 -859 -387 -1164 -554 -295 -161 -639 -377 -850
-533 l-95 -70 -196 0 c-207 -1 -310 -13 -489 -57 -334 -83 -671 -244 -805
-386 -100 -107 -150 -234 -116 -298 8 -14 0 -21 -52 -44 -34 -15 -144 -53
-243 -86 -223 -73 -306 -107 -521 -214 -194 -96 -292 -158 -379 -239 -155
-146 -172 -326 -41 -443 124 -112 443 -220 796 -269 170 -24 339 -31 736 -31
307 1 389 4 555 23 107 13 202 25 211 28 12 3 28 -19 64 -93 103 -213 302
-534 453 -733 361 -473 817 -881 1322 -1182 641 -382 1372 -616 2125 -679 169
-14 634 -13 800 1 275 23 520 62 755 120 41 10 116 28 165 41 98 24 500 158
568 189 23 10 91 40 151 65 552 238 1090 606 1531 1050 816 820 1302 1865
1396 3003 12 150 6 694 -9 805 -4 31 -8 57 -8 57 1 0 33 -13 73 -29 92 -38
257 -78 353 -86 217 -19 492 71 677 221 97 78 203 207 267 323 25 46 46 85 46
88 0 2 11 28 24 57 30 66 61 167 83 277 22 107 25 494 5 609 -34 191 -97 381
-187 565 -223 456 -634 796 -1053 871 -96 17 -274 16 -369 -1z m417 -330 c240
-78 460 -252 620 -491 195 -293 283 -576 282 -919 0 -431 -180 -768 -484 -904
-94 -42 -161 -55 -278 -54 -126 1 -228 26 -347 82 -77 37 -182 102 -138 86 95
-35 174 -47 285 -42 137 5 208 26 329 94 420 237 586 858 354 1318 -103 205
-261 347 -458 412 -70 23 -96 27 -210 27 -117 0 -138 -3 -210 -28 -221 -76
-384 -225 -496 -451 -27 -55 -61 -145 -76 -200 -24 -89 -27 -118 -27 -270 -1
-151 1 -174 19 -210 42 -84 136 -110 221 -60 57 33 64 60 63 235 0 173 18 257
83 383 56 108 156 210 253 258 65 32 76 34 170 34 94 0 104 -2 167 -34 196
-98 310 -328 295 -596 -11 -186 -69 -332 -180 -451 -110 -118 -203 -159 -346
-152 -110 5 -179 36 -264 116 -74 71 -94 82 -144 82 -79 0 -153 -66 -153 -138
0 -24 -9 -44 -29 -67 -44 -51 -46 -87 -12 -243 102 -468 121 -1025 50 -1517
-132 -917 -568 -1792 -1234 -2474 -656 -672 -1481 -1127 -2407 -1326 -468
-100 -1040 -127 -1528 -70 -782 91 -1527 381 -2155 839 -356 259 -710 615
-970 976 -124 171 -355 560 -355 596 0 6 33 17 73 24 89 15 179 39 367 94
l145 43 170 -9 c203 -10 562 4 845 33 107 11 238 24 290 29 52 5 102 11 110
14 8 3 76 15 150 26 1061 160 2371 544 3475 1018 871 374 1555 762 2065 1171
144 115 404 380 482 491 124 177 187 330 196 475 5 99 -6 170 -40 251 l-21 51
22 29 c33 45 35 88 12 223 -26 150 -28 367 -6 494 63 360 255 618 525 705 98
31 95 31 235 28 110 -3 143 -7 215 -31z m-2195 -1285 c573 -35 919 -176 951
-386 23 -154 -85 -345 -340 -599 -237 -237 -353 -322 -616 -453 -238 -119
-548 -238 -710 -271 -147 -31 -850 -206 -985 -246 -130 -38 -514 -117 -800
-164 -335 -55 -860 -121 -965 -121 -36 0 -126 -7 -200 -16 -353 -40 -695 -45
-910 -13 -110 16 -717 134 -920 179 -231 51 -437 85 -704 115 -121 14 -221 27
-223 29 -11 10 410 268 637 390 925 499 2107 945 3267 1235 967 242 1891 360
2518 321z"/>
<path d="M10995 10336 c-45 -19 -119 -107 -160 -188 -33 -67 -35 -76 -35 -173
0 -199 81 -579 199 -932 34 -99 61 -184 61 -187 0 -10 -117 71 -195 135 -107
88 -199 185 -517 549 -233 265 -301 337 -328 346 -40 13 -72 5 -109 -29 -41
-38 -121 -168 -137 -225 -29 -99 -5 -302 106 -892 38 -201 83 -444 99 -541 46
-272 77 -340 178 -386 43 -20 63 -24 99 -18 86 13 128 75 126 190 -1 33 -35
287 -77 564 -41 278 -73 506 -72 507 2 2 32 -31 67 -72 111 -130 380 -385 505
-479 148 -111 210 -147 328 -187 82 -28 105 -32 209 -32 131 -1 157 9 190 75
36 70 20 164 -72 407 -98 263 -149 482 -250 1077 -59 352 -82 444 -117 480
-29 28 -53 31 -98 11z"/>
<path d="M11960 8768 l0 -53 -51 -23 c-49 -21 -51 -24 -33 -37 10 -8 29 -15
40 -15 34 0 45 -22 38 -74 -4 -26 -3 -46 3 -46 5 0 23 20 40 44 l31 44 49 -15
c26 -8 56 -19 67 -25 12 -6 22 -6 29 1 7 7 -3 25 -32 57 -22 26 -41 54 -41 62
0 9 12 28 26 43 36 38 24 50 -32 31 l-46 -15 -35 36 c-19 21 -38 37 -44 37 -5
0 -9 -24 -9 -52z"/>
<path d="M4450 9439 c-215 -27 -366 -59 -565 -121 -431 -133 -676 -278 -752
-444 -23 -51 -25 -64 -18 -128 4 -39 6 -90 6 -114 -2 -58 33 -93 123 -121 85
-26 158 -26 261 -1 237 57 428 181 890 575 216 185 312 253 377 269 47 11 48
69 1 87 -29 11 -231 10 -323 -2z"/>
<path d="M10569 5876 c-2 -2 -202 -9 -444 -15 -890 -22 -1795 -89 -2600 -191
-38 -5 -115 -14 -170 -20 -159 -17 -235 -28 -310 -44 -38 -9 -97 -16 -130 -16
-70 0 -127 -16 -210 -58 -33 -17 -91 -40 -130 -53 -162 -51 -280 -121 -309
-184 -80 -168 93 -282 579 -384 28 -6 84 -15 125 -21 240 -33 294 -40 380 -50
52 -6 151 -15 220 -20 69 -5 211 -16 315 -24 203 -16 420 -28 820 -48 344 -17
2207 -17 2605 0 648 27 960 43 1070 53 63 5 207 17 320 24 273 20 430 33 459
40 14 4 99 13 190 21 168 14 266 25 401 43 41 6 109 15 150 20 74 10 265 40
390 61 261 43 573 124 695 180 190 87 239 219 122 322 -70 61 -294 134 -596
193 -132 26 -532 75 -776 94 -317 26 -495 43 -535 51 -25 5 -85 9 -135 10 -49
0 -277 5 -505 10 -404 9 -1982 14 -1991 6z"/>
<path d="M5066 5557 c3 -10 9 -15 12 -12 3 3 0 11 -7 18 -10 9 -11 8 -5 -6z"/>
</g>
</svg>
